<svg xmlns="http://www.w3.org/2000/svg" style="display:none">
  <symbol id="logo" viewBox="0 0 24 24">
    <path d="M4 4h7l2 4h7l-2 12h-7l-2-4H4z" fill="currentColor"/>
  </symbol>
  <symbol id="dashboard" viewBox="0 0 24 24">
    <path d="M3 3h8v8H3zM13 3h8v5h-8zM13 10h8v11h-8zM3 13h8v8H3z" fill="currentColor"/>
  </symbol>
  <symbol id="box" viewBox="0 0 24 24">
    <path d="M4 7l8-4 8 4v10l-8 4-8-4V7zm8-1.5L6.5 8 12 10.5 17.5 8 12 5.5z" fill="currentColor"/>
  </symbol>
  <symbol id="orders" viewBox="0 0 24 24">
    <path d="M6 3h12l3 5-9 13L3 8l3-5zm3 5h6l-3 4.5L9 8z" fill="currentColor"/>
  </symbol>
  <symbol id="customers" viewBox="0 0 24 24">
    <path d="M12 12a5 5 0 1 0-5-5 5 5 0 0 0 5 5zm0 3c-4.33 0-8 2.17-8 5v1h16v-1c0-2.83-3.67-5-8-5z" fill="currentColor"/>
  </symbol>
  <symbol id="inventory" viewBox="0 0 24 24">
    <path d="M4 4h16v4H4zm0 6h16v10H4z" fill="currentColor"/>
  </symbol>
  <symbol id="documents" viewBox="0 0 24 24">
    <path d="M6 2h9l5 5v15a1 1 0 0 1-1 1H6a1 1 0 0 1-1-1V3a1 1 0 0 1 1-1zm8 1.5V8h4.5zM8 12h8v2H8zm0 4h8v2H8z" fill="currentColor"/>
  </symbol>
  <symbol id="integrations" viewBox="0 0 24 24">
    <path d="M7 2a3 3 0 1 1 0 6 3 3 0 0 1 0-6zm10 0a3 3 0 1 1 0 6 3 3 0 0 1 0-6zM7 16a3 3 0 1 1 0 6 3 3 0 0 1 0-6zm10 0a3 3 0 1 1 0 6 3 3 0 0 1 0-6zM6 7h2l2 4h4l2-4h2l-2.5 5L18 17h-2l-2-4h-4l-2 4H6l2.5-5z" fill="currentColor"/>
  </symbol>
  <symbol id="settings" viewBox="0 0 24 24">
    <path d="M12 8a4 4 0 1 1-4 4 4 4 0 0 1 4-4zm9 4a7.43 7.43 0 0 0-.08-1l2.11-1.65-2-3.46-2.49.5a7.49 7.49 0 0 0-1.73-1L16.5 2h-4.5l-.33 2.39a7.49 7.49 0 0 0-1.73 1l-2.49-.5-2 3.46L7.56 11a7.43 7.43 0 0 0 0 2l-2.11 1.66 2 3.46 2.49-.5a7.49 7.49 0 0 0 1.73 1L12 22h4.5l.33-2.39a7.49 7.49 0 0 0 1.73-1l2.49.5 2-3.46L20.92 13a7.43 7.43 0 0 0 .08-1z" fill="currentColor"/>
  </symbol>
  <symbol id="logs" viewBox="0 0 24 24">
    <path d="M5 3h14v4H5zm0 6h14v12H5zm4 3v6h2v-6zm4 0v6h2v-6z" fill="currentColor"/>
  </symbol>
  <symbol id="logout" viewBox="0 0 24 24">
    <path d="M10 3H5v18h5v-2H7V5h3zM14 7l5 5-5 5v-3h-6v-4h6z" fill="currentColor"/>
  </symbol>
  <symbol id="plus" viewBox="0 0 24 24">
    <path d="M11 5h2v6h6v2h-6v6h-2v-6H5v-2h6z" fill="currentColor"/>
  </symbol>
  <symbol id="filter" viewBox="0 0 24 24">
    <path d="M4 5h16v2l-6 7v4l-4 2v-6L4 7z" fill="currentColor"/>
  </symbol>
  <symbol id="upload" viewBox="0 0 24 24">
    <path d="M5 20h14v-2H5zm7-16l5 5h-3v4h-4v-4H7z" fill="currentColor"/>
  </symbol>
  <symbol id="excel" viewBox="0 0 24 24">
    <path d="M5 3h10l4 4v14a1 1 0 0 1-1 1H5a1 1 0 0 1-1-1V4a1 1 0 0 1 1-1zm9 2v3h3z" fill="currentColor"/>
    <path d="M8.5 10h2l1.5 2.25L13.5 10h2l-2.5 3.5L15.5 17h-2l-1.5-2.25L10.5 17h-2l2.5-3.5z" fill="currentColor"/>
  </symbol>
  <symbol id="user" viewBox="0 0 24 24">
    <path d="M12 12a5 5 0 1 0-5-5 5 5 0 0 0 5 5zm0 2c-4.33 0-8 2.17-8 5v1h16v-1c0-2.83-3.67-5-8-5z" fill="currentColor"/>
  </symbol>
  <symbol id="alert" viewBox="0 0 24 24">
    <path d="M1 21h22L12 2 1 21zm12-3h-2v2h2zm0-6h-2v4h2z" fill="currentColor"/>
  </symbol>
  <symbol id="info" viewBox="0 0 24 24">
    <path d="M12 2a10 10 0 1 0 10 10A10.011 10.011 0 0 0 12 2zm1 15h-2v-6h2zm0-8h-2V7h2z" fill="currentColor"/>
  </symbol>
  <symbol id="check" viewBox="0 0 24 24">
    <path d="M9 16.17l-3.88-3.88L4 12.41l5 5 11-11-1.41-1.41z" fill="currentColor"/>
  </symbol>
  <symbol id="close" viewBox="0 0 24 24">
    <path d="M18 6L6 18M6 6l12 12" stroke="currentColor" stroke-width="2" stroke-linecap="round"/>
  </symbol>
  <symbol id="search" viewBox="0 0 24 24">
    <svg xmlns="http://www.w3.org/2000/svg" x="0px" y="0px" width="24" height="24" viewBox="0 0 50 50">
      <path
        d="M 21 3 C 11.621094 3 4 10.621094 4 20 C 4 29.378906 11.621094 37 21 37 C 24.710938 37 28.140625 35.804688 30.9375 33.78125 L 44.09375 46.90625 L 46.90625 44.09375 L 33.90625 31.0625 C 36.460938 28.085938 38 24.222656 38 20 C 38 10.621094 30.378906 3 21 3 Z M 21 5 C 29.296875 5 36 11.703125 36 20 C 36 28.296875 29.296875 35 21 35 C 12.703125 35 6 28.296875 6 20 C 6 11.703125 12.703125 5 21 5 Z"></path>
    </svg>
  </symbol>

</svg>
