<svg width="128" height="128" viewBox="0 0 128 128" fill="none" xmlns="http://www.w3.org/2000/svg">
  <rect width="128" height="128" rx="32" fill="#2563EB" />
  <path
    d="M38 76.5C38 63.0736 49.0736 52 62.5 52H74C82.8366 52 90 59.1634 90 68C90 76.8366 82.8366 84 74 84H62.5C49.0736 84 38 94.9731 38 108.5V76.5Z"
    fill="white"
    opacity="0.9"
  />
  <path
    d="M40 32C40 24.268 46.268 18 54 18H74C87.2548 18 98 28.7452 98 42C98 55.2548 87.2548 66 74 66H54C46.268 66 40 59.732 40 52V32Z"
    fill="white"
  />
</svg>
