<svg xmlns="http://www.w3.org/2000/svg" style="display:none">
  <symbol id="logo" viewBox="0 0 24 24">
    <path d="M4 4h7l2 4h7l-2 12h-7l-2-4H4z" fill="currentColor"/>
  </symbol>
  <symbol id="dashboard" viewBox="0 0 24 24">
    <path d="M3 3h8v8H3zM13 3h8v5h-8zM13 10h8v11h-8zM3 13h8v8H3z" fill="currentColor"/>
  </symbol>
  <symbol id="box" viewBox="0 0 24 24">
    <path d="M4 7l8-4 8 4v10l-8 4-8-4V7zm8-1.5L6.5 8 12 10.5 17.5 8 12 5.5z" fill="currentColor"/>
  </symbol>
  <symbol id="orders" viewBox="0 0 24 24">
    <path d="M6 3h12l3 5-9 13L3 8l3-5zm3 5h6l-3 4.5L9 8z" fill="currentColor"/>
  </symbol>
  <symbol id="customers" viewBox="0 0 24 24">
    <path d="M12 12a5 5 0 1 0-5-5 5 5 0 0 0 5 5zm0 3c-4.33 0-8 2.17-8 5v1h16v-1c0-2.83-3.67-5-8-5z"
          fill="currentColor"/>
  </symbol>
  <symbol id="inventory" viewBox="0 0 24 24">
    <path d="M4 4h16v4H4zm0 6h16v10H4z" fill="currentColor"/>
  </symbol>
  <symbol id="documents" viewBox="0 0 24 24">
    <path d="M6 2h9l5 5v15a1 1 0 0 1-1 1H6a1 1 0 0 1-1-1V3a1 1 0 0 1 1-1zm8 1.5V8h4.5zM8 12h8v2H8zm0 4h8v2H8z"
          fill="currentColor"/>
  </symbol>
  <symbol id="integrations" viewBox="0 0 24 24">
    <path
      d="M7 2a3 3 0 1 1 0 6 3 3 0 0 1 0-6zm10 0a3 3 0 1 1 0 6 3 3 0 0 1 0-6zM7 16a3 3 0 1 1 0 6 3 3 0 0 1 0-6zm10 0a3 3 0 1 1 0 6 3 3 0 0 1 0-6zM6 7h2l2 4h4l2-4h2l-2.5 5L18 17h-2l-2-4h-4l-2 4H6l2.5-5z"
      fill="currentColor"/>
  </symbol>
  <symbol id="settings" viewBox="0 0 24 24">
    <path
      d="M12 8a4 4 0 1 1-4 4 4 4 0 0 1 4-4zm9 4a7.43 7.43 0 0 0-.08-1l2.11-1.65-2-3.46-2.49.5a7.49 7.49 0 0 0-1.73-1L16.5 2h-4.5l-.33 2.39a7.49 7.49 0 0 0-1.73 1l-2.49-.5-2 3.46L7.56 11a7.43 7.43 0 0 0 0 2l-2.11 1.66 2 3.46 2.49-.5a7.49 7.49 0 0 0 1.73 1L12 22h4.5l.33-2.39a7.49 7.49 0 0 0 1.73-1l2.49.5 2-3.46L20.92 13a7.43 7.43 0 0 0 .08-1z"
      fill="currentColor"/>
  </symbol>
  <symbol id="logs" viewBox="0 0 24 24">
    <path d="M5 3h14v4H5zm0 6h14v12H5zm4 3v6h2v-6zm4 0v6h2v-6z" fill="currentColor"/>
  </symbol>
  <symbol id="logout" viewBox="0 0 24 24">
    <path d="M10 3H5v18h5v-2H7V5h3zM14 7l5 5-5 5v-3h-6v-4h6z" fill="currentColor"/>
  </symbol>
  <symbol id="plus" viewBox="0 0 24 24">
    <path d="M11 5h2v6h6v2h-6v6h-2v-6H5v-2h6z" fill="currentColor"/>
  </symbol>
  <symbol id="filter" viewBox="0 0 24 24">
    <path d="M4 5h16v2l-6 7v4l-4 2v-6L4 7z" fill="currentColor"/>
  </symbol>
  <symbol id="calendar" viewBox="0 0 24 24">
    <path
      d="M19 4h-1V2h-2v2H8V2H6v2H5a2 2 0 0 0-2 2v12a2 2 0 0 0 2 2h14a2 2 0 0 0 2-2V6a2 2 0 0 0-2-2zm0 14H5V9h14zm0-11H5V6h14z"
      fill="currentColor"
    />
  </symbol>
  <symbol id="upload" viewBox="0 0 24 24">
    <path d="M5 20h14v-2H5zm7-16l5 5h-3v4h-4v-4H7z" fill="currentColor"/>
  </symbol>
  <symbol id="excel" viewBox="0 0 24 24">
    <path d="M5 3h10l4 4v14a1 1 0 0 1-1 1H5a1 1 0 0 1-1-1V4a1 1 0 0 1 1-1zm9 2v3h3z" fill="currentColor"/>
    <path d="M8.5 10h2l1.5 2.25L13.5 10h2l-2.5 3.5L15.5 17h-2l-1.5-2.25L10.5 17h-2l2.5-3.5z" fill="currentColor"/>
  </symbol>
  <symbol id="user" viewBox="0 0 24 24">
    <path d="M12 12a5 5 0 1 0-5-5 5 5 0 0 0 5 5zm0 2c-4.33 0-8 2.17-8 5v1h16v-1c0-2.83-3.67-5-8-5z"
          fill="currentColor"/>
  </symbol>
  <symbol id="alert" viewBox="0 0 24 24">
    <path d="M1 21h22L12 2 1 21zm12-3h-2v2h2zm0-6h-2v4h2z" fill="currentColor"/>
  </symbol>
  <symbol id="info" viewBox="0 0 24 24">
    <path d="M12 2a10 10 0 1 0 10 10A10.011 10.011 0 0 0 12 2zm1 15h-2v-6h2zm0-8h-2V7h2z" fill="currentColor"/>
  </symbol>
  <symbol id="check" viewBox="0 0 24 24">
    <path d="M9 16.17l-3.88-3.88L4 12.41l5 5 11-11-1.41-1.41z" fill="currentColor"/>
  </symbol>
  <symbol id="close" viewBox="0 0 24 24">
    <path d="M18 6L6 18M6 6l12 12" stroke="currentColor" stroke-width="2" stroke-linecap="round"/>
  </symbol>
  <symbol id="arrow-right" viewBox="0 0 24 24">
    <path d="M10 5l7 7-7 7-1.41-1.41L14.17 12 8.59 6.41z" fill="currentColor"/>
  </symbol>
  <symbol id="search" viewBox="0 0 24 24">
    <svg xmlns="http://www.w3.org/2000/svg" x="0px" y="0px" width="24" height="24" viewBox="0 0 50 50">
      <path
        d="M 21 3 C 11.621094 3 4 10.621094 4 20 C 4 29.378906 11.621094 37 21 37 C 24.710938 37 28.140625 35.804688 30.9375 33.78125 L 44.09375 46.90625 L 46.90625 44.09375 L 33.90625 31.0625 C 36.460938 28.085938 38 24.222656 38 20 C 38 10.621094 30.378906 3 21 3 Z M 21 5 C 29.296875 5 36 11.703125 36 20 C 36 28.296875 29.296875 35 21 35 C 12.703125 35 6 28.296875 6 20 C 6 11.703125 12.703125 5 21 5 Z"></path>
    </svg>
  </symbol>
  <symbol id="print" viewBox="0 0 24 24">
    <path
      d="M6 2h12v5h2a3 3 0 0 1 3 3v8h-4v6H7v-6H3v-8a3 3 0 0 1 3-3h2zm10 2H8v3h8zm-1 15H9v4h6zm4-6a1.5 1.5 0 1 0-1.5-1.5A1.5 1.5 0 0 0 19 13z"
      fill="currentColor"
    />
  </symbol>
  <symbol id="chevron-down" viewBox="0 0 24 24">
    <path d="M6 9l6 6 6-6" fill="none" stroke="currentColor" stroke-width="2" stroke-linecap="round"
          stroke-linejoin="round"/>
  </symbol>
  <symbol id="menu" viewBox="0 0 24 24">
    <path d="M4 6h16v2H4zm0 5h16v2H4zm0 5h16v2H4z" fill="currentColor"/>
  </symbol>
  <symbol id="mail" viewBox="0 0 32 32">
    <svg width="32" height="32" viewBox="0 0 20 20" fill="none" xmlns="http://www.w3.org/2000/svg">
      <path
        d="M3.33335 3.33333H16.6667C17.5834 3.33333 18.3334 4.08333 18.3334 5V15C18.3334 15.9167 17.5834 16.6667 16.6667 16.6667H3.33335C2.41669 16.6667 1.66669 15.9167 1.66669 15V5C1.66669 4.08333 2.41669 3.33333 3.33335 3.33333Z"
        stroke="#4A4B4D" stroke-linecap="round" stroke-linejoin="round"/>
      <path d="M18.3334 5L10 10.8333L1.66669 5" stroke="#4A4B4D" stroke-linecap="round" stroke-linejoin="round"/>
    </svg>
  </symbol>
  <symbol id="map-pin" viewBox="0 0 32 32">
    <svg width="32" height="32" viewBox="0 0 20 20" fill="none" xmlns="http://www.w3.org/2000/svg">
      <path
        d="M17.5 8.33333C17.5 14.1667 10 19.1667 10 19.1667C10 19.1667 2.5 14.1667 2.5 8.33333C2.5 6.34421 3.29018 4.43655 4.6967 3.03003C6.10322 1.62351 8.01088 0.833333 10 0.833333C11.9891 0.833333 13.8968 1.62351 15.3033 3.03003C16.7098 4.43655 17.5 6.34421 17.5 8.33333Z"
        stroke="#4A4B4D" stroke-linecap="round" stroke-linejoin="round"/>
      <path
        d="M10 10.8333C11.3807 10.8333 12.5 9.71405 12.5 8.33333C12.5 6.95262 11.3807 5.83333 10 5.83333C8.61929 5.83333 7.5 6.95262 7.5 8.33333C7.5 9.71405 8.61929 10.8333 10 10.8333Z"
        stroke="#4A4B4D" stroke-linecap="round" stroke-linejoin="round"/>
    </svg>

  </symbol>
  <symbol id="phone" viewBox="0 0 32 32">
    <svg width="32" height="32" viewBox="0 0 20 20" fill="none" xmlns="http://www.w3.org/2000/svg">
      <path
        d="M12.5417 4.16667C13.3556 4.32547 14.1036 4.72355 14.69 5.30995C15.2764 5.89634 15.6745 6.64439 15.8333 7.45833M12.5417 0.833333C14.2327 1.0212 15.8096 1.77848 17.0135 2.98084C18.2174 4.1832 18.9767 5.75917 19.1667 7.45M18.3333 14.1V16.6C18.3343 16.8321 18.2867 17.0618 18.1937 17.2745C18.1008 17.4871 17.9644 17.678 17.7934 17.8349C17.6224 17.9918 17.4205 18.1112 17.2006 18.1856C16.9808 18.2599 16.7478 18.2876 16.5167 18.2667C13.9523 17.988 11.4892 17.1118 9.32499 15.7083C7.31151 14.4289 5.60443 12.7218 4.32499 10.7083C2.91663 8.53434 2.04019 6.05916 1.76665 3.48333C1.74583 3.25289 1.77321 3.02063 1.84707 2.80135C1.92092 2.58207 2.03963 2.38057 2.19562 2.20968C2.35162 2.03879 2.54149 1.90226 2.75314 1.80877C2.9648 1.71528 3.1936 1.66688 3.42499 1.66667H5.92499C6.32941 1.66269 6.72148 1.8059 7.02812 2.06961C7.33476 2.33332 7.53505 2.69954 7.59165 3.1C7.69717 3.90005 7.89286 4.68561 8.17499 5.44167C8.2871 5.73994 8.31137 6.0641 8.24491 6.37573C8.17844 6.68737 8.02404 6.97343 7.79999 7.2L6.74165 8.25833C7.92795 10.3446 9.65536 12.072 11.7417 13.2583L12.8 12.2C13.0266 11.9759 13.3126 11.8215 13.6243 11.7551C13.9359 11.6886 14.26 11.7129 14.5583 11.825C15.3144 12.1071 16.0999 12.3028 16.9 12.4083C17.3048 12.4654 17.6745 12.6693 17.9388 12.9812C18.203 13.2932 18.3435 13.6913 18.3333 14.1Z"
        stroke="#4A4B4D" stroke-linecap="round" stroke-linejoin="round"/>
    </svg>

  </symbol>
  <symbol id="shopping-logo" viewBox="0 0 32 32">
    <svg width="32" height="32" viewBox="0 0 20 20" fill="none" xmlns="http://www.w3.org/2000/svg">
      <path
        d="M5 1.66666L2.5 5V16.6667C2.5 17.1087 2.67559 17.5326 2.98816 17.8452C3.30072 18.1577 3.72464 18.3333 4.16667 18.3333H15.8333C16.2754 18.3333 16.6993 18.1577 17.0118 17.8452C17.3244 17.5326 17.5 17.1087 17.5 16.6667V5L15 1.66666H5Z"
        stroke="#4A4B4D" stroke-linecap="round" stroke-linejoin="round"/>
      <path d="M2.5 5H17.5" stroke="#4A4B4D" stroke-linecap="round" stroke-linejoin="round"/>
      <path
        d="M13.3333 8.33334C13.3333 9.21739 12.9821 10.0652 12.357 10.6904C11.7319 11.3155 10.884 11.6667 9.99999 11.6667C9.11593 11.6667 8.26809 11.3155 7.64297 10.6904C7.01785 10.0652 6.66666 9.21739 6.66666 8.33334"
        stroke="#4A4B4D" stroke-linecap="round" stroke-linejoin="round"/>
    </svg>

  </symbol>
  <symbol id="heart" viewBox="0 0 32 32">
    <svg width="32" height="32" viewBox="0 0 20 20" fill="none" xmlns="http://www.w3.org/2000/svg">
      <path
        d="M17.3667 3.84167C16.941 3.41584 16.4357 3.07804 15.8795 2.84757C15.3232 2.6171 14.7271 2.49848 14.125 2.49848C13.5229 2.49848 12.9268 2.6171 12.3705 2.84757C11.8143 3.07804 11.309 3.41584 10.8833 3.84167L10 4.725L9.11666 3.84167C8.25692 2.98193 7.09086 2.49893 5.875 2.49893C4.65914 2.49893 3.49307 2.98193 2.63333 3.84167C1.77359 4.70141 1.29059 5.86748 1.29059 7.08334C1.29059 8.2992 1.77359 9.46526 2.63333 10.325L3.51666 11.2083L10 17.6917L16.4833 11.2083L17.3667 10.325C17.7925 9.89937 18.1303 9.39402 18.3608 8.8378C18.5912 8.28158 18.7099 7.68541 18.7099 7.08334C18.7099 6.48126 18.5912 5.88509 18.3608 5.32887C18.1303 4.77266 17.7925 4.2673 17.3667 3.84167Z"
        stroke="#4A4B4D" stroke-linecap="round" stroke-linejoin="round"/>
    </svg>

  </symbol>
  <symbol id="user-icon" viewBox="0 0 32 32">
    <svg width="32" height="32" viewBox="0 0 20 20" fill="none" xmlns="http://www.w3.org/2000/svg">
      <path
        d="M16.6667 17.5V15.8333C16.6667 14.9493 16.3155 14.1014 15.6904 13.4763C15.0652 12.8512 14.2174 12.5 13.3333 12.5H6.66668C5.78262 12.5 4.93478 12.8512 4.30965 13.4763C3.68453 14.1014 3.33334 14.9493 3.33334 15.8333V17.5"
        stroke="#4A4B4D" stroke-linecap="round" stroke-linejoin="round"/>
      <path
        d="M9.99999 9.16667C11.8409 9.16667 13.3333 7.67428 13.3333 5.83333C13.3333 3.99238 11.8409 2.5 9.99999 2.5C8.15904 2.5 6.66666 3.99238 6.66666 5.83333C6.66666 7.67428 8.15904 9.16667 9.99999 9.16667Z"
        stroke="#4A4B4D" stroke-linecap="round" stroke-linejoin="round"/>
    </svg>
  </symbol>
  <symbol id="catalogue" viewBox="0 0 32 32">
    <svg width="32" height="32" viewBox="0 0 20 20" fill="none" xmlns="http://www.w3.org/2000/svg">
      <path d="M8.33333 2.5H2.5V8.33333H8.33333V2.5Z" stroke="white" stroke-linecap="round" stroke-linejoin="round"/>
      <path d="M17.5 2.5H11.6667V8.33333H17.5V2.5Z" stroke="white" stroke-linecap="round" stroke-linejoin="round"/>
      <path d="M17.5 11.6667H11.6667V17.5H17.5V11.6667Z" stroke="white" stroke-linecap="round" stroke-linejoin="round"/>
      <path d="M8.33333 11.6667H2.5V17.5H8.33333V11.6667Z" stroke="white" stroke-linecap="round"
            stroke-linejoin="round"/>
    </svg>
  </symbol>
  <symbol id="search-icon" viewBox="0 0 32 32">
    <svg width="32" height="32" viewBox="0 0 20 20" fill="none" xmlns="http://www.w3.org/2000/svg">
      <path
        d="M9.16667 15.8333C12.8486 15.8333 15.8333 12.8486 15.8333 9.16667C15.8333 5.48477 12.8486 2.5 9.16667 2.5C5.48477 2.5 2.5 5.48477 2.5 9.16667C2.5 12.8486 5.48477 15.8333 9.16667 15.8333Z"
        stroke="#979797" stroke-linecap="round" stroke-linejoin="round"/>
      <path d="M17.5 17.5L13.875 13.875" stroke="#979797" stroke-linecap="round" stroke-linejoin="round"/>
    </svg>
  </symbol>
  <symbol id="menu-icon" viewBox="0 0 32 32">
    <svg width="32" height="32" viewBox="0 0 20 20" fill="none" xmlns="http://www.w3.org/2000/svg">
      <path d="M2.5 10H17.5" stroke="#4A4B4D" stroke-linecap="round" stroke-linejoin="round"/>
      <path d="M2.5 5H17.5" stroke="#4A4B4D" stroke-linecap="round" stroke-linejoin="round"/>
      <path d="M2.5 15H17.5" stroke="#4A4B4D" stroke-linecap="round" stroke-linejoin="round"/>
    </svg>
  </symbol>
  <symbol id="menu-close" viewBox="0 0 32 32">
    <svg width="24" height="24" viewBox="0 0 24 24" fill="none" xmlns="http://www.w3.org/2000/svg">
      <path d="M18 6L6 18" stroke="#4A4B4D" stroke-linecap="round" stroke-linejoin="round"/>
      <path d="M6 6L18 18" stroke="#4A4B4D" stroke-linecap="round" stroke-linejoin="round"/>
    </svg>
  </symbol>
  <symbol id="telegram" viewBox="0 0 24 24">
    <svg width="24" height="24" viewBox="0 0 24 24" fill="none" xmlns="http://www.w3.org/2000/svg">
      <g clip-path="url(#clip0_4274_2297)">
        <path
          d="M0 12C0 18.6274 5.37258 24 12 24C18.6274 24 24 18.6274 24 12C24 5.37258 18.6274 0 12 0C5.37258 0 0 5.37258 0 12Z"
          fill="#979797"/>
        <path
          d="M16.3917 7.09351C16.3917 7.09351 17.5943 6.63501 17.4941 7.74856C17.4607 8.20706 17.16 9.81181 16.9262 11.5476L16.1245 16.6895C16.1245 16.6895 16.0577 17.4427 15.4564 17.5738C14.8551 17.7048 13.9531 17.1152 13.7861 16.9842C13.6525 16.886 11.2807 15.4122 10.4456 14.6917C10.2117 14.4952 9.94445 14.1022 10.479 13.6437L13.9865 10.3686C14.3874 9.97556 14.7883 9.05856 13.118 10.1721L8.4412 13.2834C8.4412 13.2834 7.9067 13.6109 6.90455 13.3162L4.7332 12.6612C4.7332 12.6612 3.93147 12.1699 5.3011 11.6786C8.64165 10.1394 12.7505 8.56731 16.3917 7.09351Z"
          fill="white"/>
      </g>
      <defs>
        <clipPath id="clip0_4274_2297">
          <rect width="24" height="24" fill="white"/>
        </clipPath>
      </defs>
    </svg>

  </symbol>
  <symbol id="whatsapp" viewBox="0 0 24 24">
    <svg width="24" height="24" viewBox="0 0 24 24" fill="none" xmlns="http://www.w3.org/2000/svg">
      <g clip-path="url(#clip0_4274_2303)">
        <path
          d="M0 12C0 18.6274 5.37258 24 12 24C18.6274 24 24 18.6274 24 12C24 5.37258 18.6274 0 12 0C5.37258 0 0 5.37258 0 12Z"
          fill="#979797"/>
        <path
          d="M15.3251 13.0279C15.3447 13.0375 15.3566 13.0433 15.3593 13.0446C15.4929 13.1088 15.5986 13.1595 15.6598 13.2602C15.7493 13.4083 15.7138 13.8165 15.5794 14.1901C15.4087 14.6644 14.6583 15.0532 14.3169 15.0835L14.2668 15.0883C14.1878 15.096 14.0983 15.1048 13.9865 15.1048C13.7204 15.1048 13.2523 15.0592 12.2639 14.6644C11.2372 14.2542 10.2245 13.375 9.41205 12.1885C9.40965 12.185 9.4074 12.1818 9.4053 12.1786C9.39485 12.1633 9.3874 12.1525 9.38305 12.1466C9.1709 11.867 8.6768 11.1319 8.6768 10.3533C8.6768 9.48816 9.0909 8.99626 9.33565 8.84196C9.5665 8.69646 10.0886 8.62771 10.1844 8.62366C10.2413 8.62126 10.2473 8.62061 10.2533 8.62041C10.2556 8.62036 10.2579 8.62036 10.2631 8.62036C10.4655 8.62036 10.6111 8.74311 10.7212 9.00681C10.7322 9.03306 10.7654 9.11291 10.8099 9.21986C10.9505 9.55836 11.2038 10.1678 11.2221 10.2045C11.2516 10.2621 11.3426 10.4408 11.236 10.6525L11.2131 10.6984C11.1696 10.7868 11.1318 10.8633 11.0473 10.9616C11.0202 10.993 10.9926 11.0262 10.965 11.0595C10.9067 11.1295 10.8464 11.2021 10.7909 11.2571C10.7719 11.2761 10.7351 11.313 10.7311 11.3277C10.7314 11.3299 10.7334 11.343 10.7481 11.368C10.8621 11.5609 11.6931 12.7046 12.788 13.1802C12.8358 13.201 12.9938 13.266 13.0029 13.266C13.0131 13.266 13.0301 13.249 13.0426 13.2348C13.1379 13.127 13.4466 12.7662 13.5485 12.6147C13.6387 12.4798 13.7545 12.4111 13.8923 12.4111C13.9766 12.4111 14.056 12.437 14.13 12.4636C14.2938 12.5226 15.1424 12.9384 15.3251 13.0279Z"
          fill="white"/>
        <path fill-rule="evenodd" clip-rule="evenodd"
              d="M5.2479 11.8247C5.2479 8.06155 8.33266 5 12.1243 5C15.9156 5 19 8.06155 19 11.8247C19 15.5874 15.9156 18.6486 12.1243 18.6486C10.9872 18.6486 9.86366 18.3682 8.8696 17.8371L5.23685 18.9914C5.21875 18.9972 5.2002 19 5.1818 19C5.13375 19 5.0867 18.9809 5.05205 18.9455C5.004 18.8966 4.98763 18.8247 5.00965 18.7598L6.19065 15.276C5.57365 14.2333 5.2479 13.0418 5.2479 11.8247ZM9.12715 16.3335C10.018 16.918 11.0543 17.227 12.1243 17.227C15.1272 17.227 17.5703 14.8036 17.5702 11.8247C17.5702 8.84545 15.1272 6.42165 12.1242 6.42165C9.12095 6.42165 6.6776 8.84545 6.6776 11.8247C6.6776 12.9698 7.03615 14.0649 7.71455 14.9918C7.74955 15.0396 7.75905 15.1015 7.74005 15.1576L7.1526 16.8908L8.97235 16.3123C8.9904 16.3066 9.00895 16.3037 9.02745 16.3037C9.06245 16.3037 9.0972 16.3138 9.12715 16.3335Z"
              fill="white"/>
      </g>
      <defs>
        <clipPath id="clip0_4274_2303">
          <rect width="24" height="24" fill="white"/>
        </clipPath>
      </defs>
    </svg>

  </symbol>
  <symbol id="vk" viewBox="0 0 24 24">
    <svg width="24" height="24" viewBox="0 0 24 24" fill="none" xmlns="http://www.w3.org/2000/svg">
      <g clip-path="url(#clip0_4274_2300)">
        <path
          d="M0 12C0 18.6274 5.37258 24 12 24C18.6274 24 24 18.6274 24 12C24 5.37258 18.6274 0 12 0C5.37258 0 0 5.37258 0 12Z"
          fill="#979797"/>
        <path
          d="M12.6699 17C7.54495 17 4.6218 13.4339 4.5 7.5H7.06715C7.15145 11.8554 9.044 13.7002 10.543 14.0806V7.5H12.9604V11.2563C14.4407 11.0946 15.9958 9.3829 16.5205 7.5H18.9377C18.5349 9.8203 16.8485 11.5321 15.6492 12.2358C16.8485 12.8063 18.7692 14.2993 19.5 17H16.8391C16.2676 15.1932 14.8436 13.7953 12.9604 13.6051V17H12.6699Z"
          fill="white"/>
      </g>
      <defs>
        <clipPath id="clip0_4274_2300">
          <rect width="24" height="24" fill="white"/>
        </clipPath>
      </defs>
    </svg>
  </symbol>
</svg>
