<svg xmlns="http://www.w3.org/2000/svg" style="display:none">
  <symbol id="logo" viewBox="0 0 24 24">
    <path d="M4 4h7l2 4h7l-2 12h-7l-2-4H4z" fill="currentColor"/>
  </symbol>
  <symbol id="dashboard" viewBox="0 0 24 24">
    <path d="M3 3h8v8H3zM13 3h8v5h-8zM13 10h8v11h-8zM3 13h8v8H3z" fill="currentColor"/>
  </symbol>
  <symbol id="box" viewBox="0 0 24 24">
    <path d="M4 7l8-4 8 4v10l-8 4-8-4V7zm8-1.5L6.5 8 12 10.5 17.5 8 12 5.5z" fill="currentColor"/>
  </symbol>
  <symbol id="orders" viewBox="0 0 24 24">
    <path d="M6 3h12l3 5-9 13L3 8l3-5zm3 5h6l-3 4.5L9 8z" fill="currentColor"/>
  </symbol>
  <symbol id="customers" viewBox="0 0 24 24">
    <path d="M12 12a5 5 0 1 0-5-5 5 5 0 0 0 5 5zm0 3c-4.33 0-8 2.17-8 5v1h16v-1c0-2.83-3.67-5-8-5z"
          fill="currentColor"/>
  </symbol>
  <symbol id="inventory" viewBox="0 0 24 24">
    <path d="M4 4h16v4H4zm0 6h16v10H4z" fill="currentColor"/>
  </symbol>
  <symbol id="documents" viewBox="0 0 24 24">
    <path d="M6 2h9l5 5v15a1 1 0 0 1-1 1H6a1 1 0 0 1-1-1V3a1 1 0 0 1 1-1zm8 1.5V8h4.5zM8 12h8v2H8zm0 4h8v2H8z"
          fill="currentColor"/>
  </symbol>
  <symbol id="integrations" viewBox="0 0 24 24">
    <path
      d="M7 2a3 3 0 1 1 0 6 3 3 0 0 1 0-6zm10 0a3 3 0 1 1 0 6 3 3 0 0 1 0-6zM7 16a3 3 0 1 1 0 6 3 3 0 0 1 0-6zm10 0a3 3 0 1 1 0 6 3 3 0 0 1 0-6zM6 7h2l2 4h4l2-4h2l-2.5 5L18 17h-2l-2-4h-4l-2 4H6l2.5-5z"
      fill="currentColor"/>
  </symbol>
  <symbol id="settings" viewBox="0 0 24 24">
    <path
      d="M12 8a4 4 0 1 1-4 4 4 4 0 0 1 4-4zm9 4a7.43 7.43 0 0 0-.08-1l2.11-1.65-2-3.46-2.49.5a7.49 7.49 0 0 0-1.73-1L16.5 2h-4.5l-.33 2.39a7.49 7.49 0 0 0-1.73 1l-2.49-.5-2 3.46L7.56 11a7.43 7.43 0 0 0 0 2l-2.11 1.66 2 3.46 2.49-.5a7.49 7.49 0 0 0 1.73 1L12 22h4.5l.33-2.39a7.49 7.49 0 0 0 1.73-1l2.49.5 2-3.46L20.92 13a7.43 7.43 0 0 0 .08-1z"
      fill="currentColor"/>
  </symbol>
  <symbol id="logs" viewBox="0 0 24 24">
    <path d="M5 3h14v4H5zm0 6h14v12H5zm4 3v6h2v-6zm4 0v6h2v-6z" fill="currentColor"/>
  </symbol>
  <symbol id="logout" viewBox="0 0 24 24">
    <path d="M10 3H5v18h5v-2H7V5h3zM14 7l5 5-5 5v-3h-6v-4h6z" fill="currentColor"/>
  </symbol>
  <symbol id="plus" viewBox="0 0 24 24">
    <path d="M11 5h2v6h6v2h-6v6h-2v-6H5v-2h6z" fill="currentColor"/>
  </symbol>
  <symbol id="filter" viewBox="0 0 24 24">
    <path d="M4 5h16v2l-6 7v4l-4 2v-6L4 7z" fill="currentColor"/>
  </symbol>
  <symbol id="calendar" viewBox="0 0 24 24">
    <path
      d="M19 4h-1V2h-2v2H8V2H6v2H5a2 2 0 0 0-2 2v12a2 2 0 0 0 2 2h14a2 2 0 0 0 2-2V6a2 2 0 0 0-2-2zm0 14H5V9h14zm0-11H5V6h14z"
      fill="currentColor"
    />
  </symbol>
  <symbol id="upload" viewBox="0 0 24 24">
    <path d="M5 20h14v-2H5zm7-16l5 5h-3v4h-4v-4H7z" fill="currentColor"/>
  </symbol>
  <symbol id="excel" viewBox="0 0 24 24">
    <path d="M5 3h10l4 4v14a1 1 0 0 1-1 1H5a1 1 0 0 1-1-1V4a1 1 0 0 1 1-1zm9 2v3h3z" fill="currentColor"/>
    <path d="M8.5 10h2l1.5 2.25L13.5 10h2l-2.5 3.5L15.5 17h-2l-1.5-2.25L10.5 17h-2l2.5-3.5z" fill="currentColor"/>
  </symbol>
  <symbol id="user" viewBox="0 0 24 24">
    <path d="M12 12a5 5 0 1 0-5-5 5 5 0 0 0 5 5zm0 2c-4.33 0-8 2.17-8 5v1h16v-1c0-2.83-3.67-5-8-5z"
          fill="currentColor"/>
  </symbol>
  <symbol id="alert" viewBox="0 0 24 24">
    <path d="M1 21h22L12 2 1 21zm12-3h-2v2h2zm0-6h-2v4h2z" fill="currentColor"/>
  </symbol>
  <symbol id="info" viewBox="0 0 24 24">
    <path d="M12 2a10 10 0 1 0 10 10A10.011 10.011 0 0 0 12 2zm1 15h-2v-6h2zm0-8h-2V7h2z" fill="currentColor"/>
  </symbol>
  <symbol id="check" viewBox="0 0 24 24">
    <path d="M9 16.17l-3.88-3.88L4 12.41l5 5 11-11-1.41-1.41z" fill="currentColor"/>
  </symbol>
  <symbol id="close" viewBox="0 0 24 24">
    <path d="M18 6L6 18M6 6l12 12" stroke="currentColor" stroke-width="2" stroke-linecap="round"/>
  </symbol>
  <symbol id="arrow-right" viewBox="0 0 24 24">
    <path d="M10 5l7 7-7 7-1.41-1.41L14.17 12 8.59 6.41z" fill="currentColor"/>
  </symbol>
  <symbol id="search" viewBox="0 0 24 24">
    <svg xmlns="http://www.w3.org/2000/svg" x="0px" y="0px" width="24" height="24" viewBox="0 0 50 50">
      <path
        d="M 21 3 C 11.621094 3 4 10.621094 4 20 C 4 29.378906 11.621094 37 21 37 C 24.710938 37 28.140625 35.804688 30.9375 33.78125 L 44.09375 46.90625 L 46.90625 44.09375 L 33.90625 31.0625 C 36.460938 28.085938 38 24.222656 38 20 C 38 10.621094 30.378906 3 21 3 Z M 21 5 C 29.296875 5 36 11.703125 36 20 C 36 28.296875 29.296875 35 21 35 C 12.703125 35 6 28.296875 6 20 C 6 11.703125 12.703125 5 21 5 Z"></path>
    </svg>
  </symbol>
  <symbol id="print" viewBox="0 0 24 24">
    <path
      d="M6 2h12v5h2a3 3 0 0 1 3 3v8h-4v6H7v-6H3v-8a3 3 0 0 1 3-3h2zm10 2H8v3h8zm-1 15H9v4h6zm4-6a1.5 1.5 0 1 0-1.5-1.5A1.5 1.5 0 0 0 19 13z"
      fill="currentColor"
    />
  </symbol>
  <symbol id="chevron-down" viewBox="0 0 24 24">
    <path d="M6 9l6 6 6-6" fill="none" stroke="currentColor" stroke-width="2" stroke-linecap="round"
          stroke-linejoin="round"/>
  </symbol>
  <symbol id="menu" viewBox="0 0 24 24">
    <path d="M4 6h16v2H4zm0 5h16v2H4zm0 5h16v2H4z" fill="currentColor"/>
  </symbol>
  <symbol id="mail" viewBox="0 0 32 32">
    <svg width="32" height="32" viewBox="0 0 20 20" fill="none" xmlns="http://www.w3.org/2000/svg">
      <path
        d="M3.33335 3.33333H16.6667C17.5834 3.33333 18.3334 4.08333 18.3334 5V15C18.3334 15.9167 17.5834 16.6667 16.6667 16.6667H3.33335C2.41669 16.6667 1.66669 15.9167 1.66669 15V5C1.66669 4.08333 2.41669 3.33333 3.33335 3.33333Z"
        stroke="#4A4B4D" stroke-linecap="round" stroke-linejoin="round"/>
      <path d="M18.3334 5L10 10.8333L1.66669 5" stroke="#4A4B4D" stroke-linecap="round" stroke-linejoin="round"/>
    </svg>
  </symbol>
  <symbol id="map-pin" viewBox="0 0 32 32">
    <svg width="32" height="32" viewBox="0 0 20 20" fill="none" xmlns="http://www.w3.org/2000/svg">
      <path
        d="M17.5 8.33333C17.5 14.1667 10 19.1667 10 19.1667C10 19.1667 2.5 14.1667 2.5 8.33333C2.5 6.34421 3.29018 4.43655 4.6967 3.03003C6.10322 1.62351 8.01088 0.833333 10 0.833333C11.9891 0.833333 13.8968 1.62351 15.3033 3.03003C16.7098 4.43655 17.5 6.34421 17.5 8.33333Z"
        stroke="#4A4B4D" stroke-linecap="round" stroke-linejoin="round"/>
      <path
        d="M10 10.8333C11.3807 10.8333 12.5 9.71405 12.5 8.33333C12.5 6.95262 11.3807 5.83333 10 5.83333C8.61929 5.83333 7.5 6.95262 7.5 8.33333C7.5 9.71405 8.61929 10.8333 10 10.8333Z"
        stroke="#4A4B4D" stroke-linecap="round" stroke-linejoin="round"/>
    </svg>

  </symbol>
  <symbol id="phone" viewBox="0 0 32 32">
    <svg width="32" height="32" viewBox="0 0 20 20" fill="none" xmlns="http://www.w3.org/2000/svg">
      <path
        d="M12.5417 4.16667C13.3556 4.32547 14.1036 4.72355 14.69 5.30995C15.2764 5.89634 15.6745 6.64439 15.8333 7.45833M12.5417 0.833333C14.2327 1.0212 15.8096 1.77848 17.0135 2.98084C18.2174 4.1832 18.9767 5.75917 19.1667 7.45M18.3333 14.1V16.6C18.3343 16.8321 18.2867 17.0618 18.1937 17.2745C18.1008 17.4871 17.9644 17.678 17.7934 17.8349C17.6224 17.9918 17.4205 18.1112 17.2006 18.1856C16.9808 18.2599 16.7478 18.2876 16.5167 18.2667C13.9523 17.988 11.4892 17.1118 9.32499 15.7083C7.31151 14.4289 5.60443 12.7218 4.32499 10.7083C2.91663 8.53434 2.04019 6.05916 1.76665 3.48333C1.74583 3.25289 1.77321 3.02063 1.84707 2.80135C1.92092 2.58207 2.03963 2.38057 2.19562 2.20968C2.35162 2.03879 2.54149 1.90226 2.75314 1.80877C2.9648 1.71528 3.1936 1.66688 3.42499 1.66667H5.92499C6.32941 1.66269 6.72148 1.8059 7.02812 2.06961C7.33476 2.33332 7.53505 2.69954 7.59165 3.1C7.69717 3.90005 7.89286 4.68561 8.17499 5.44167C8.2871 5.73994 8.31137 6.0641 8.24491 6.37573C8.17844 6.68737 8.02404 6.97343 7.79999 7.2L6.74165 8.25833C7.92795 10.3446 9.65536 12.072 11.7417 13.2583L12.8 12.2C13.0266 11.9759 13.3126 11.8215 13.6243 11.7551C13.9359 11.6886 14.26 11.7129 14.5583 11.825C15.3144 12.1071 16.0999 12.3028 16.9 12.4083C17.3048 12.4654 17.6745 12.6693 17.9388 12.9812C18.203 13.2932 18.3435 13.6913 18.3333 14.1Z"
        stroke="#4A4B4D" stroke-linecap="round" stroke-linejoin="round"/>
    </svg>

  </symbol>
  <symbol id="shopping-logo" viewBox="0 0 32 32">
    <svg width="32" height="32" viewBox="0 0 20 20" fill="none" xmlns="http://www.w3.org/2000/svg">
      <path
        d="M5 1.66666L2.5 5V16.6667C2.5 17.1087 2.67559 17.5326 2.98816 17.8452C3.30072 18.1577 3.72464 18.3333 4.16667 18.3333H15.8333C16.2754 18.3333 16.6993 18.1577 17.0118 17.8452C17.3244 17.5326 17.5 17.1087 17.5 16.6667V5L15 1.66666H5Z"
        stroke="#4A4B4D" stroke-linecap="round" stroke-linejoin="round"/>
      <path d="M2.5 5H17.5" stroke="#4A4B4D" stroke-linecap="round" stroke-linejoin="round"/>
      <path
        d="M13.3333 8.33334C13.3333 9.21739 12.9821 10.0652 12.357 10.6904C11.7319 11.3155 10.884 11.6667 9.99999 11.6667C9.11593 11.6667 8.26809 11.3155 7.64297 10.6904C7.01785 10.0652 6.66666 9.21739 6.66666 8.33334"
        stroke="#4A4B4D" stroke-linecap="round" stroke-linejoin="round"/>
    </svg>

  </symbol>
  <symbol id="heart" viewBox="0 0 32 32">
    <svg width="32" height="32" viewBox="0 0 20 20" fill="none" xmlns="http://www.w3.org/2000/svg">
      <path
        d="M17.3667 3.84167C16.941 3.41584 16.4357 3.07804 15.8795 2.84757C15.3232 2.6171 14.7271 2.49848 14.125 2.49848C13.5229 2.49848 12.9268 2.6171 12.3705 2.84757C11.8143 3.07804 11.309 3.41584 10.8833 3.84167L10 4.725L9.11666 3.84167C8.25692 2.98193 7.09086 2.49893 5.875 2.49893C4.65914 2.49893 3.49307 2.98193 2.63333 3.84167C1.77359 4.70141 1.29059 5.86748 1.29059 7.08334C1.29059 8.2992 1.77359 9.46526 2.63333 10.325L3.51666 11.2083L10 17.6917L16.4833 11.2083L17.3667 10.325C17.7925 9.89937 18.1303 9.39402 18.3608 8.8378C18.5912 8.28158 18.7099 7.68541 18.7099 7.08334C18.7099 6.48126 18.5912 5.88509 18.3608 5.32887C18.1303 4.77266 17.7925 4.2673 17.3667 3.84167Z"
        stroke="#4A4B4D" stroke-linecap="round" stroke-linejoin="round"/>
    </svg>

  </symbol>
  <symbol id="user-icon" viewBox="0 0 32 32">
    <svg width="32" height="32" viewBox="0 0 20 20" fill="none" xmlns="http://www.w3.org/2000/svg">
      <path
        d="M16.6667 17.5V15.8333C16.6667 14.9493 16.3155 14.1014 15.6904 13.4763C15.0652 12.8512 14.2174 12.5 13.3333 12.5H6.66668C5.78262 12.5 4.93478 12.8512 4.30965 13.4763C3.68453 14.1014 3.33334 14.9493 3.33334 15.8333V17.5"
        stroke="#4A4B4D" stroke-linecap="round" stroke-linejoin="round"/>
      <path
        d="M9.99999 9.16667C11.8409 9.16667 13.3333 7.67428 13.3333 5.83333C13.3333 3.99238 11.8409 2.5 9.99999 2.5C8.15904 2.5 6.66666 3.99238 6.66666 5.83333C6.66666 7.67428 8.15904 9.16667 9.99999 9.16667Z"
        stroke="#4A4B4D" stroke-linecap="round" stroke-linejoin="round"/>
    </svg>
  </symbol>
  <symbol id="catalogue" viewBox="0 0 32 32">
    <svg width="32" height="32" viewBox="0 0 20 20" fill="none" xmlns="http://www.w3.org/2000/svg">
      <path d="M8.33333 2.5H2.5V8.33333H8.33333V2.5Z" stroke="white" stroke-linecap="round" stroke-linejoin="round"/>
      <path d="M17.5 2.5H11.6667V8.33333H17.5V2.5Z" stroke="white" stroke-linecap="round" stroke-linejoin="round"/>
      <path d="M17.5 11.6667H11.6667V17.5H17.5V11.6667Z" stroke="white" stroke-linecap="round" stroke-linejoin="round"/>
      <path d="M8.33333 11.6667H2.5V17.5H8.33333V11.6667Z" stroke="white" stroke-linecap="round"
            stroke-linejoin="round"/>
    </svg>
  </symbol>
  <symbol id="search-icon" viewBox="0 0 32 32">
    <svg width="32" height="32" viewBox="0 0 20 20" fill="none" xmlns="http://www.w3.org/2000/svg">
      <path
        d="M9.16667 15.8333C12.8486 15.8333 15.8333 12.8486 15.8333 9.16667C15.8333 5.48477 12.8486 2.5 9.16667 2.5C5.48477 2.5 2.5 5.48477 2.5 9.16667C2.5 12.8486 5.48477 15.8333 9.16667 15.8333Z"
        stroke="#979797" stroke-linecap="round" stroke-linejoin="round"/>
      <path d="M17.5 17.5L13.875 13.875" stroke="#979797" stroke-linecap="round" stroke-linejoin="round"/>
    </svg>
  </symbol>
  <symbol id="menu-icon" viewBox="0 0 32 32">
    <svg width="32" height="32" viewBox="0 0 20 20" fill="none" xmlns="http://www.w3.org/2000/svg">
      <path d="M2.5 10H17.5" stroke="#4A4B4D" stroke-linecap="round" stroke-linejoin="round"/>
      <path d="M2.5 5H17.5" stroke="#4A4B4D" stroke-linecap="round" stroke-linejoin="round"/>
      <path d="M2.5 15H17.5" stroke="#4A4B4D" stroke-linecap="round" stroke-linejoin="round"/>
    </svg>
  </symbol>
  <symbol id="menu-close" viewBox="0 0 32 32">
    <svg width="24" height="24" viewBox="0 0 24 24" fill="none" xmlns="http://www.w3.org/2000/svg">
      <path d="M18 6L6 18" stroke="#4A4B4D" stroke-linecap="round" stroke-linejoin="round"/>
      <path d="M6 6L18 18" stroke="#4A4B4D" stroke-linecap="round" stroke-linejoin="round"/>
    </svg>
  </symbol>
  <symbol id="telegram" viewBox="0 0 24 24">
    <path
      d="M12 0C5.37258 0 0 5.37258 0 12C0 18.6274 5.37258 24 12 24C18.6274 24 24 18.6274 24 12C24 5.37258 18.6274 0 12 0ZM17.2852 7.78058L15.6797 15.3606C15.5613 15.8871 15.2508 16.0155 14.8133 15.7698L12.4148 13.9996L11.2571 15.1156C11.1289 15.2451 11.021 15.3577 10.7738 15.3606L10.9465 12.8929L15.4399 8.84319C15.6357 8.67051 15.3988 8.57398 15.1391 8.74667L9.59165 12.244L7.20147 11.4946C6.68194 11.3327 6.67179 10.9741 7.31054 10.7219L16.6455 7.12342C17.0755 6.96555 17.4514 7.22721 17.2852 7.78058Z"
      fill="currentColor"
    />
  </symbol>
  <symbol id="whatsapp" viewBox="0 0 24 24">
    <path
      d="M12.0008 0.00146484C5.63646 0.00146484 0.46875 5.16918 0.46875 11.5335C0.46875 13.9695 1.19402 16.2754 2.50589 18.2433L1.36427 23.2416L6.50747 22.0685C8.41521 23.3095 10.6393 24.0008 12.9991 24.0008C19.3635 24.0008 24.5312 18.8331 24.5312 12.4687C24.5312 6.1044 19.3635 0.936684 12.9991 0.936684H12.0008V0.00146484ZM12.0008 2.46635H12.9991C17.974 2.46635 21.999 6.49137 21.999 11.4663C21.999 16.4412 17.974 20.4662 12.9991 20.4662C11.0735 20.4662 9.27961 19.8553 7.78224 18.8012L7.39116 18.5282L4.40702 19.1925L5.10465 16.1691L4.79315 15.7037C3.76034 14.1802 3.26552 12.4688 3.26552 10.8651C3.26552 6.04948 7.18521 2.46635 12.0008 2.46635ZM9.87468 6.80062C9.65815 6.80062 9.27602 6.91606 8.99087 7.20024C8.70572 7.48442 7.9574 8.14178 7.9574 9.35593C7.9574 10.5701 8.83124 11.7458 8.95709 11.9184C9.08295 12.0911 10.8464 14.9234 13.5203 16.0241C15.066 16.6719 15.5618 16.5998 16.1562 16.5245C16.7507 16.4492 17.782 15.8995 18.0214 15.2759C18.2607 14.6523 18.2607 14.1026 18.198 14.0032C18.1352 13.9037 17.9084 13.822 17.595 13.6887C17.2816 13.5554 15.925 12.9189 15.6276 12.8255C15.3301 12.7321 15.1393 12.6854 14.9301 12.9979C14.721 13.3105 14.1815 13.9037 14.0088 14.0927C13.8362 14.2818 13.6635 14.3127 13.3501 14.1794C13.0367 14.0461 11.9817 13.6921 10.9433 12.7576C10.1091 11.9936 9.53644 11.0612 9.36382 10.7486C9.1912 10.436 9.35679 10.2711 9.48912 10.1378C9.60014 10.0251 9.74907 9.83814 9.88139 9.67273C10.0137 9.50733 10.0774 9.39255 10.1401 9.25925C10.2028 9.12595 10.1719 8.98417 10.1092 8.85087C10.0464 8.71756 9.558 7.46271 9.3095 6.99871C9.11197 6.62555 9.07624 6.80062 9.05197 6.80062H9.87468Z"
      fill="currentColor"
    />
  </symbol>
  <symbol id="vk" viewBox="0 0 24 24">
    <path
      d="M12.0044 0C5.37476 0 0 5.37476 0 12.0044C0 18.6341 5.37476 24.0088 12.0044 24.0088C18.6341 24.0088 24.0088 18.6341 24.0088 12.0044C24.0088 5.37476 18.6341 0 12.0044 0ZM18.7584 16.5732H17.1154C16.3079 16.5732 16.2456 16.1509 15.7441 15.5943C15.195 14.9898 14.7576 14.9427 14.7576 14.9427C14.5446 14.9427 14.421 15.0801 14.421 15.3435C14.421 15.664 14.7478 16.0784 15.0982 16.5351C15.5157 17.0718 15.8906 17.4961 15.8906 17.4961C15.8906 17.4961 15.9433 17.6061 15.864 17.7384C15.7833 17.8729 15.6141 17.8936 15.4733 17.8936H13.1599C13.1599 17.8936 12.8012 17.9157 12.5447 17.7549C12.3148 17.6101 12.3148 17.2749 12.3148 17.1426C12.3148 15.9876 12.8379 15.5454 12.8379 15.5454C13.5226 14.9028 14.5175 14.8294 14.5175 14.8294C14.4681 14.7734 14.4298 14.7315 14.4298 14.7315C13.7872 13.9328 12.771 12.293 12.771 12.293C11.6711 10.3565 11.1051 10.2552 10.8921 10.2264C10.7156 10.203 10.4917 10.2677 10.4917 10.5209V13.8824C10.4917 14.1904 10.4405 14.3535 10.023 14.3491C9.32618 14.3343 7.86703 13.7821 6.80348 12.33C5.43152 10.4637 4.84146 8.73669 4.84262 8.32982C4.84262 8.0828 4.922 7.96473 5.21476 7.96473H7.09319C7.49076 7.96473 7.55081 8.14393 7.6633 8.4093C8.04209 9.34633 8.82127 10.6852 9.09018 10.9848C9.18444 11.0896 9.31445 11.1485 9.4281 11.1485C9.61004 11.1485 9.64203 10.9957 9.64203 10.7717V8.19974C9.60773 7.74819 9.43542 7.65511 9.43542 7.65511C8.97282 7.2297 8.13223 7.08291 7.89969 7.0528C7.89969 7.0528 7.90259 7.00096 7.9833 6.9551C8.13223 6.86989 8.51769 6.78471 9.18043 6.78471C10.5337 6.78471 11.0776 7.40882 11.0776 7.40882C11.3572 7.71565 12.0979 8.98962 12.6624 9.97816C13.1417 10.8141 13.6379 11.6127 13.6379 11.6127C13.9624 12.117 14.1231 12.3023 14.2863 12.3023C14.4531 12.3023 14.4961 12.0911 14.4961 12.0341V9.53294C14.4961 8.27264 14.1516 7.87025 14.1516 7.87025C13.8012 7.4292 13.1384 7.25313 12.8707 7.20216C12.8707 7.20216 12.8238 7.16187 12.8707 7.09276C12.9796 6.93078 13.682 6.78471 14.6401 6.78471C15.0217 6.78471 15.6399 6.8446 16.1676 7.19377C16.6123 7.4949 16.7272 7.93837 16.7715 8.21007C16.7715 8.21007 16.9424 9.09889 16.625 12.6211C16.625 12.6211 16.6023 13.3426 17.1698 14.1267C17.5371 14.5857 18.0893 15.0567 18.3458 15.3073C18.7645 15.7196 18.7569 16.0437 18.7569 16.2999C18.7569 16.5585 18.7584 16.5732 18.7584 16.5732Z"
      fill="currentColor"
    />
  </symbol>
</svg>
